<svg width="87" height="19" viewBox="0 0 87 19" fill="none" xmlns="http://www.w3.org/2000/svg">
<path d="M22.2816 0V18.375H18.4536V0H22.2816ZM3.8544 0V18.375H0V0H3.8544ZM19.9056 10.8412H2.3232V7.9275H19.9056V10.8412ZM32.5838 18.7425C31.123 18.7425 29.8294 18.4974 28.703 18.0075C27.5765 17.4999 26.6966 16.7387 26.063 15.7238C25.4294 14.6912 25.1126 13.4226 25.1126 11.9175C25.1126 10.4826 25.3942 9.25744 25.9574 8.2425C26.5205 7.20994 27.3214 6.42244 28.3598 5.88C29.4158 5.33756 30.6742 5.06625 32.135 5.06625C33.5606 5.06625 34.7837 5.31994 35.8046 5.8275C36.8254 6.33506 37.5998 7.07006 38.1278 8.0325C38.6734 8.99494 38.9462 10.1588 38.9462 11.5238C38.9462 11.7163 38.9374 11.9087 38.9198 12.1012C38.9021 12.2762 38.8757 12.4163 38.8406 12.5212L36.0422 11.9962C36.095 11.0687 35.9806 10.2726 35.699 9.6075C35.4173 8.94244 34.9774 8.43506 34.379 8.085C33.7805 7.7175 33.0413 7.53375 32.1614 7.53375C31.3517 7.53375 30.6389 7.7175 30.023 8.085C29.4245 8.43506 28.967 8.94244 28.6502 9.6075C28.3334 10.2726 28.175 11.0687 28.175 11.9962C28.175 12.9763 28.3598 13.7901 28.7294 14.4375C29.1166 15.0849 29.6446 15.5662 30.3134 15.8812C30.9998 16.1962 31.8094 16.3538 32.7422 16.3538C33.4109 16.3538 34.0973 16.2662 34.8014 16.0912C35.5229 15.8987 36.1565 15.645 36.7022 15.33L36.887 17.8237C36.3062 18.1213 35.6374 18.3487 34.8806 18.5062C34.1237 18.6637 33.3581 18.7425 32.5838 18.7425ZM27.9902 11.6025L38.5502 11.1825L38.8406 12.5212H28.1222L27.9902 11.6025ZM44.8323 5.46V18.375H41.7963V5.46H44.8323ZM43.3275 5.46V7.9275H40.5555V5.46H43.3275ZM42.9051 3.255C42.3068 3.255 41.8404 3.12375 41.5059 2.86125C41.1891 2.59875 41.0307 2.22244 41.0307 1.7325C41.0307 1.24256 41.1891 0.866247 41.5059 0.603747C41.8404 0.341247 42.3156 0.209999 42.9315 0.209999C43.5123 0.209999 43.9611 0.341247 44.2779 0.603747C44.6124 0.866247 44.7795 1.24256 44.7795 1.7325C44.7795 2.22244 44.6124 2.59875 44.2779 2.86125C43.9611 3.12375 43.5036 3.255 42.9051 3.255ZM50.8975 5.48625L51.8215 11.2612V18.375H48.3631V5.48625H50.8975ZM51.8479 10.4737C52.024 9.33619 52.42 8.37375 53.0359 7.58625C53.652 6.78131 54.4704 6.16875 55.4911 5.74875C56.512 5.32875 57.6912 5.11875 59.0287 5.11875C60.472 5.11875 61.704 5.355 62.7247 5.8275C63.7456 6.28256 64.5199 6.94744 65.0479 7.8225C65.5759 8.69756 65.8399 9.765 65.8399 11.025V18.375H62.3815V11.3137C62.3815 10.0888 61.9504 9.135 61.0879 8.4525C60.2431 7.77 59.0551 7.42875 57.5239 7.42875C56.3272 7.42875 55.2976 7.62994 54.4351 8.0325C53.5903 8.43506 52.9392 9.02119 52.4815 9.79125C52.0416 10.5613 51.8215 11.4887 51.8215 12.5737L51.4783 10.4737H51.8479ZM72.7018 5.46V18.375H69.6658V5.46H72.7018ZM71.197 5.46V7.9275H68.425V5.46H71.197ZM70.7746 3.255C70.1763 3.255 69.71 3.12375 69.3754 2.86125C69.0586 2.59875 68.9002 2.22244 68.9002 1.7325C68.9002 1.24256 69.0586 0.866247 69.3754 0.603747C69.71 0.341247 70.1852 0.209999 70.801 0.209999C71.3818 0.209999 71.8306 0.341247 72.1474 0.603747C72.482 0.866247 72.649 1.24256 72.649 1.7325C72.649 2.22244 72.482 2.59875 72.1474 2.86125C71.8306 3.12375 71.3732 3.255 70.7746 3.255ZM75.3086 8.68875C75.3086 7.91869 75.5376 7.26244 75.995 6.72C76.4527 6.17756 77.1127 5.76619 77.975 5.48625C78.8376 5.20631 79.8758 5.06625 81.0902 5.06625C82.0406 5.06625 82.9646 5.15381 83.8622 5.32875C84.7776 5.50369 85.5696 5.73994 86.2382 6.0375L86.1062 8.53125C85.4198 8.21625 84.6367 7.97119 83.7566 7.79625C82.8943 7.62131 82.0495 7.53375 81.2222 7.53375C80.3599 7.53375 79.6999 7.665 79.2422 7.9275C78.8023 8.17256 78.5822 8.5575 78.5822 9.0825C78.5822 9.43256 78.6878 9.72994 78.899 9.975C79.128 10.2201 79.4887 10.4212 79.9814 10.5787C80.4216 10.7188 80.9407 10.8412 81.539 10.9462C82.7712 11.1562 83.7744 11.4276 84.5486 11.76C85.3406 12.075 85.9303 12.4862 86.3174 12.9937C86.7223 13.4837 86.9246 14.1051 86.9246 14.8575C86.9246 15.6801 86.6695 16.3888 86.159 16.9837C85.6663 17.5612 84.9446 17.9987 83.9942 18.2962C83.0616 18.5938 81.935 18.7425 80.615 18.7425C79.5415 18.7425 78.5294 18.6549 77.579 18.48C76.6286 18.3225 75.7927 18.0774 75.071 17.745L75.2294 15.1462C76.0392 15.5137 76.9015 15.8025 77.8166 16.0125C78.732 16.2051 79.6471 16.3012 80.5622 16.3012C81.1958 16.3012 81.7416 16.2399 82.199 16.1175C82.6567 15.9951 82.9999 15.8113 83.2286 15.5663C83.4751 15.3038 83.5982 14.9799 83.5982 14.595C83.5982 14.1924 83.484 13.86 83.255 13.5975C83.0263 13.335 82.6831 13.125 82.2254 12.9675C81.768 12.7926 81.1608 12.6437 80.4038 12.5212C79.1894 12.3287 78.2126 12.075 77.4734 11.76C76.7342 11.445 76.1887 11.0424 75.8366 10.5525C75.4848 10.0449 75.3086 9.42375 75.3086 8.68875Z" fill="#514747"/>
</svg>
