<svg width="16" height="15" viewBox="0 0 16 15" fill="none" xmlns="http://www.w3.org/2000/svg">
<path d="M8.4925 3.59532C8.50985 3.60757 8.56341 3.6731 8.59037 3.69774C8.53418 3.69526 8.4297 3.55122 8.4925 3.59532ZM13.0931 4.29545C13.0652 4.28071 13.0371 4.26597 13.009 4.25124C13.0655 4.31615 13.1525 4.3928 13.2026 4.45531C13.2109 4.46557 13.1676 4.46079 13.1887 4.48342C13.2098 4.50603 13.2317 4.47575 13.2664 4.50462C13.3052 4.5371 13.4506 4.71796 13.5076 4.77386C13.7214 4.98279 13.9501 5.18041 14.1515 5.40237C13.9128 5.20372 14.114 5.44301 14.1838 5.49569C14.1994 5.50728 14.246 5.4566 14.4536 5.6875C14.5434 5.78722 14.4802 5.79192 14.5147 5.84656L15.3974 6.58919L14.5147 7.6265C14.4889 7.64262 14.4517 7.68031 14.3882 7.76581C14.6164 7.63606 14.4365 7.808 14.2975 7.94937C14.2735 7.97375 14.0706 8.16106 13.9861 8.24919C13.9575 8.27937 13.9379 8.34969 13.8994 8.38925C13.8728 8.41662 13.8383 8.423 13.7989 8.4635C13.6152 8.6525 13.4325 8.83644 13.2403 9.01794C13.2843 8.84394 13.1266 9.0755 13.1146 9.08112C13.0522 9.10775 13.2488 8.90206 13.158 8.97031C13.0484 9.08319 12.939 9.19625 12.8295 9.30912C12.929 9.22606 12.7636 9.48462 12.7029 9.50206C12.7784 9.54275 12.1442 9.95731 12.0837 10.0561C12.071 10.0767 12.2089 9.99687 11.9426 10.2354C11.9138 10.2611 11.9066 10.2333 11.894 10.2492C11.8862 10.2588 11.8898 10.3659 11.8036 10.3906C11.7721 10.3996 11.8653 10.2343 11.5953 10.532C11.7652 10.4756 11.2311 10.955 11.1235 11.0339C11.1497 11.0229 11.1761 11.0118 11.2023 11.0009C11.0893 11.0724 11.092 11.108 11.0701 11.1277C10.9818 11.207 10.8472 11.3024 10.7708 11.3819C10.6813 11.4747 10.7163 11.5102 10.596 11.6026C10.629 11.5852 10.662 11.5677 10.6952 11.5503C10.6196 11.6216 10.5442 11.693 10.4685 11.7644C10.5924 11.5484 10.4295 11.7987 10.4169 11.8134C10.3969 11.8366 10.4091 11.7866 10.375 11.8252C10.3716 11.8293 10.395 11.8417 10.3409 11.8996C10.2277 12.0204 10.2236 11.9795 10.1748 12.0286C10.1702 12.0333 10.2023 12.0337 10.121 12.1222C9.86285 12.4031 10.1099 12.1085 10.1182 12.0959C10.1287 12.0794 9.96846 12.1044 10.2221 11.8998C10.1372 11.9688 10.0995 11.9469 10.0901 11.9547C10.0818 11.9617 9.95243 12.0987 9.9462 12.1072C9.89057 12.1826 9.96882 12.1454 9.95977 12.1617C9.95223 12.1752 9.7646 12.3087 9.78836 12.4076C9.65448 12.4276 9.78101 12.3121 9.9015 12.1751C9.90867 12.1447 9.75555 12.2744 9.7482 12.2819C9.56528 12.464 9.71332 12.4096 9.70314 12.4792C9.69767 12.5156 9.59131 12.5579 9.702 12.5311C9.54039 12.7008 9.61676 12.5765 9.60243 12.5836C9.58093 12.5943 9.53493 12.6641 9.52606 12.6697C9.51305 12.6779 9.53567 12.6267 9.48834 12.6635C9.48061 12.6697 9.43781 12.7619 9.53718 12.6867C9.41669 12.7994 9.44761 12.8111 9.3652 12.8079C9.36577 12.9686 9.25885 12.8182 9.22264 12.8452C9.12628 12.9172 9.21454 12.9562 9.21322 12.9637C9.20228 13.0139 8.94714 13.2241 8.89868 13.2907C8.87549 13.2224 9.08311 13.1064 9.11046 13.0614C9.20172 12.9117 8.91717 13.208 8.94734 13.0634C8.92622 13.1157 8.90528 13.1681 8.88435 13.2204C8.77969 13.2507 8.85927 13.1394 8.69125 13.3334C8.69351 13.3947 8.81458 13.2007 8.80817 13.2573C8.80421 13.2907 8.70201 13.3985 8.70785 13.4082C8.71502 13.4197 8.79911 13.3141 8.79855 13.3434C8.79704 13.4069 8.42009 13.7225 8.6675 13.4429C8.60376 13.5071 8.51984 13.4975 8.46987 13.5483L7.76009 14.3821L6.76897 13.5483C6.76142 13.5408 6.75237 13.5341 6.74162 13.5282C6.72144 13.5176 6.72936 13.5551 6.72973 13.5873L7.76669 14.4597L8.5091 13.5873C8.53682 13.5869 8.56076 13.592 8.54681 13.6248L7.77291 14.5344L6.69203 13.6248C6.66035 13.6117 6.60339 13.5644 6.50137 13.4534C6.52324 13.4171 6.64959 13.5836 6.65563 13.5851C6.6643 13.5873 6.70372 13.4952 6.7024 13.4874C6.69674 13.4606 6.30507 13.1414 6.26302 13.0336C6.25473 13.1011 5.98696 12.7726 5.94283 12.7518C5.93095 12.7464 5.94 12.8019 5.92831 12.7951C5.85571 12.7524 5.74106 12.5553 5.66959 12.482C5.58964 12.4001 5.57964 12.4304 5.57512 12.4259C5.54061 12.3892 5.58285 12.404 5.56097 12.3822C5.52797 12.3496 5.30395 12.1214 5.28981 12.1128C5.28547 12.1104 5.29943 12.1702 5.24569 12.1254C5.23626 12.1177 5.26906 12.0959 5.11085 11.9621C4.92039 11.8008 5.19929 12.1175 5.09746 12.0732C5.02505 11.9201 4.98829 11.9639 4.96075 11.9302C4.95133 11.9186 4.90644 11.8057 4.81838 11.7224C4.8857 11.7781 4.95282 11.834 5.02014 11.8897C4.96546 11.8235 4.84026 11.7138 4.79707 11.6574C4.77614 11.6298 4.82441 11.6217 4.77067 11.5698C4.75916 11.5589 4.64583 11.5829 4.81536 11.6902C4.80178 11.7256 4.75181 11.6442 4.71429 11.6206C4.70863 11.6171 4.64942 11.6397 4.63565 11.5754C4.63264 11.5599 4.85439 11.5426 4.50422 11.3666C4.49309 11.3609 4.50761 11.4052 4.49611 11.4001C4.48838 11.3966 4.42709 11.3236 4.41766 11.3184C4.40767 11.3129 4.42389 11.3615 4.41163 11.3557C4.34865 11.3261 4.35261 11.201 4.44331 11.3011C4.41936 11.2614 4.39541 11.2216 4.37146 11.1819C4.35675 11.2644 4.30734 11.1455 4.26171 11.1029C3.96829 10.8305 4.1265 11.051 4.06126 11.0189C3.95641 10.9672 4.09992 10.9436 3.95849 10.8528C3.94529 10.8444 4.05052 11.0197 3.79576 10.7264C3.83781 10.7654 3.87967 10.8044 3.92153 10.8434C3.94548 10.7731 3.77199 10.7009 3.76181 10.6921C3.64735 10.5914 3.73729 10.6469 3.55287 10.5117C3.53628 10.4997 3.51686 10.4572 3.48027 10.4324C3.32961 10.3302 3.6332 10.6134 3.62208 10.6404C3.61661 10.6535 3.30245 10.3366 3.29604 10.3214C3.26964 10.2558 3.44822 10.4553 3.43652 10.3951C3.432 10.3734 2.96321 9.94269 2.88231 9.84312C2.78897 9.72837 2.80613 9.61794 2.73334 9.68881C2.77464 9.58925 2.70035 9.61137 2.68752 9.5975C2.53252 9.43044 2.53289 9.4295 2.38769 9.29862C2.35564 9.26956 2.3513 9.22269 2.33697 9.21537C2.32848 9.21144 2.31716 9.24594 2.27926 9.22231C2.22684 9.18931 1.99301 8.90994 1.9866 8.87825C1.98019 8.84656 2.10068 8.98081 2.0988 8.93731C2.00828 8.84319 1.91438 8.76012 1.82348 8.66544C1.78577 8.62587 1.82028 8.63112 1.80387 8.61425C1.7969 8.60694 1.65038 8.48694 1.65076 8.498C1.65151 8.5235 2.0724 8.92531 1.93814 8.84281C1.91231 8.82687 1.87195 8.71981 1.84272 8.77212C1.48349 8.39656 1.12426 8.02081 0.765036 7.64506C1.00735 7.82525 1.21817 8.08944 1.44295 8.30712C1.47369 8.33694 1.5725 8.44306 1.5806 8.41006C1.3975 8.21731 1.15217 7.99475 0.984529 7.80125C0.979249 7.79506 1.01904 7.79787 1.00037 7.77331C0.965106 7.72756 0.803128 7.62594 0.788608 7.59612C0.786723 7.5905 0.886282 7.64094 0.879116 7.60269C0.869499 7.55319 0.838577 7.54737 0.80388 7.547L0 6.87065L0.80388 5.92589C0.804257 5.89195 0.798975 5.8544 0.824432 5.83003C0.864409 5.79208 1.16933 5.57384 1.20761 5.48202C1.24834 5.38432 0.997734 5.65756 0.993585 5.61485C1.14765 5.41454 1.353 5.26072 1.518 5.09077C1.52083 5.08775 1.47671 5.09495 1.51159 5.05512C1.57231 4.98581 1.61549 4.99482 1.65151 4.96741C1.69017 4.93782 1.80745 4.8137 1.83329 4.8071C1.83649 4.80629 1.838 4.85651 1.83499 4.86093C1.79293 4.92402 1.74051 4.90912 1.73523 4.91347C1.716 4.93012 1.71129 4.96057 1.69394 4.97617C1.66565 5.00182 1.63868 5.00476 1.60191 5.03924C1.57645 5.063 1.62322 5.06216 1.59852 5.08473C1.58928 5.09294 1.44276 5.13442 1.48745 5.19631C1.50159 5.21579 2.29284 4.47209 2.3562 4.38221C2.28379 4.44142 2.21138 4.50063 2.13897 4.55984C2.28869 4.44219 2.40692 4.23965 2.4816 4.29117C2.98357 3.80225 3.48555 3.31332 3.98772 2.8244C4.08182 2.74154 4.07371 2.83031 4.20797 2.67341C4.15724 2.69804 4.10652 2.72268 4.05598 2.74732C4.13989 2.68196 4.48913 2.36996 4.53439 2.30829C4.54023 2.30028 4.51308 2.25414 4.59285 2.16862C4.66356 2.09277 4.70278 2.10841 4.74748 2.07459C4.78481 2.04611 4.81461 2.0021 4.82592 1.99387C4.83459 1.98761 4.85439 2.00139 4.87551 1.98635C4.9417 1.93861 4.84799 1.93747 4.95906 1.93527C4.94736 1.95104 4.93567 1.96683 4.92398 1.98262C5.00073 1.92196 5.11952 1.85296 5.03014 1.96599C5.01487 1.98543 5.01355 1.95432 5.00053 1.96728C4.49422 2.47691 4.93265 2.10386 5.08596 1.90117C5.15592 1.87957 5.39824 1.60938 5.41144 1.60563C5.43029 1.60066 5.40559 1.66359 5.47989 1.62282C5.49554 1.61427 5.82553 1.25919 5.73389 1.41412C5.71503 1.44609 5.54344 1.60297 5.50459 1.64341C5.64923 1.60137 5.79499 1.31067 5.82139 1.28806C5.92869 1.1972 5.67486 1.52195 5.90473 1.30529C6.08142 1.1387 5.88551 1.26539 5.93718 1.18507C5.96622 1.13994 6.19873 0.983693 6.14461 0.940475C6.20627 0.868812 6.19288 0.933387 6.20306 0.92703C6.21268 0.920637 6.32959 0.775419 6.38258 0.743206C6.38899 0.739325 6.39804 0.780725 6.40558 0.777462C6.41954 0.770637 6.54117 0.639556 6.54419 0.632356C6.54588 0.62765 6.49346 0.635637 6.50044 0.617937C6.50873 0.597368 6.63601 0.481249 6.63639 0.468274C6.6362 0.449281 6.49194 0.605318 6.49232 0.555687C6.56794 0.492874 6.66449 0.363968 6.69033 0.29855C6.68486 0.315387 6.6183 0.38313 6.59303 0.404355C6.56757 0.357293 6.71258 0.214081 6.69203 0.291799C6.70805 0.245224 6.67826 0.258387 6.68147 0.226325C6.68241 0.218037 6.72635 0.172905 6.72861 0.158093C6.72842 0.15573 6.66865 0.187887 6.67053 0.171387C6.67393 0.141537 6.81214 0.00998726 6.82666 0.00244976C6.86777 -0.0186627 6.76952 0.102949 6.77556 0.127324C6.77669 0.130962 6.90059 0.0675308 6.90455 0.0687683C6.93849 0.0916058 6.81365 0.175025 6.85117 0.188637C6.88248 0.168331 6.9136 0.148043 6.9449 0.127755C6.87117 0.252574 6.67373 0.422505 6.65563 0.499099C6.7946 0.343549 6.95018 0.190925 7.01618 0.257337C7.04408 0.285275 6.99675 0.364924 7.00636 0.369556C7.04125 0.385531 7.10198 0.270106 7.1067 0.268193C7.11085 0.267068 7.11366 0.267349 7.11517 0.268812C7.13007 0.283643 7.01467 0.419674 7.01524 0.432706C7.01675 0.455281 7.12253 0.448981 7.13347 0.460025C7.13366 0.464168 7.05578 0.565137 7.10519 0.554131C7.15535 0.542956 7.23436 0.465256 7.23907 0.464506C7.26566 0.461131 7.13874 0.608318 7.14157 0.619212C7.14289 0.624818 7.23794 0.5726 7.24624 0.576556C7.25434 0.580831 7.21154 0.649944 7.2089 0.691194C7.20683 0.721925 7.26584 0.685175 7.25962 0.695806C7.25509 0.703306 7.12499 0.832174 7.12121 0.841043C7.11537 0.854225 7.16307 0.8411 7.16288 0.8498C7.16288 0.862194 7.11461 0.897706 7.12649 0.898625C7.13536 0.899262 7.3573 0.796625 7.37201 0.813443C7.39727 0.842168 7.16288 0.951499 7.42971 0.898324C7.4316 0.897912 7.46309 0.851581 7.46479 0.851169C7.50853 0.846762 7.41369 1.00109 7.56134 0.843856C7.31091 1.16049 7.56643 0.919456 7.57001 1.00657C7.57114 1.04013 7.46818 1.15691 7.47025 1.16002C7.50325 1.17146 7.52117 1.11941 7.54399 1.11836C7.55662 1.11789 7.48157 1.23929 7.51891 1.23237C7.53833 1.22877 7.64016 1.1219 7.646 1.11912C7.70182 1.09229 7.66656 1.15829 7.68598 1.15946C7.699 1.16028 7.76273 1.09801 7.76556 1.0976C7.77084 1.09752 7.71275 1.21047 7.70464 1.23796C7.69861 1.25894 7.76141 1.21996 7.75519 1.23266C7.71766 1.30893 7.54625 1.38001 7.73332 1.33329C7.74482 1.33044 7.78744 1.28469 7.78951 1.28424C7.83684 1.27677 7.75688 1.35956 7.75858 1.39023C7.7616 1.44301 7.86323 1.31094 7.78535 1.42745C7.87681 1.37296 7.9168 1.33169 7.99732 1.24154C7.77461 1.49126 7.76367 1.64652 8.02484 1.3832C7.93998 1.46527 7.99015 1.49675 7.96601 1.52229C7.95092 1.53811 7.78876 1.61825 7.93584 1.65376C7.95413 1.65817 8.01334 1.57049 8.01372 1.61666C7.8308 1.78659 8.02465 1.63516 8.02805 1.63805C8.07953 1.69383 7.60339 2.07971 7.53512 2.15964C7.45611 2.25239 7.42198 2.37069 7.40331 2.38936C7.34165 2.45066 7.37126 2.37839 7.34958 2.38422C7.3277 2.39032 7.19381 2.60555 7.18269 2.612C7.13969 2.63671 7.14875 2.57709 7.14384 2.57932C7.08614 2.60557 6.87079 2.85942 6.79895 2.91905C6.81762 2.93347 6.95112 2.80325 6.89511 2.91179C6.83005 3.03822 6.75161 2.97117 6.74576 2.97048C6.30582 3.40931 5.86589 3.84811 5.42595 4.28694C5.47027 4.32007 5.72918 4.00453 5.74068 4.00308C5.80951 3.99491 5.32223 4.47824 5.24888 4.52397C5.30262 4.4872 5.35637 4.45046 5.41011 4.41369C5.3773 4.53506 5.14801 4.64782 5.05561 4.77879C5.02581 4.82111 5.11255 4.76915 5.11218 4.77176C5.08898 4.82941 5.01034 4.88103 5.0358 4.80937C4.95886 4.93025 4.94867 4.89138 4.87079 4.96529C4.86664 4.96912 4.91738 4.95449 4.86458 5.02186C4.83987 5.0534 4.68921 5.20323 4.68487 5.23895C4.68317 5.2538 4.8295 5.24724 4.77877 5.17811C4.97187 5.04432 4.80366 5.09883 4.86872 5.0369C4.8789 5.02752 4.89004 5.08319 5.03449 4.90812C5.06447 4.99863 4.83459 5.13717 4.81027 5.17593C4.76011 5.25577 5.06012 5.01948 5.06238 4.92354C5.08652 4.9934 5.08784 4.9109 5.1497 4.85322C5.21739 4.79009 5.20287 4.83249 5.23851 4.79727C5.33581 4.70109 5.26228 4.70797 5.37241 4.65826C5.20137 4.64337 5.49723 4.50982 5.58417 4.47172C5.48686 4.57781 5.38975 4.68387 5.29244 4.78996C5.30319 4.78902 5.31394 4.78807 5.3245 4.78713C5.29697 4.81316 5.26943 4.83916 5.2419 4.86519C5.24152 4.85626 5.24116 4.84732 5.24078 4.83839C5.13273 5.00634 5.06484 5.00594 5.05315 5.0168C4.9038 5.15739 4.73616 5.32464 4.58908 5.47068C4.56701 5.49258 4.61245 5.50781 4.42803 5.64391C4.3692 5.68736 4.39391 5.61567 4.33922 5.67699C4.33092 5.81324 4.28095 5.76085 4.25926 5.78227C4.19723 5.84394 4.17535 5.89749 4.16969 5.90334C4.09558 5.98201 3.98074 6.09095 3.8989 6.17701C3.89758 6.17881 3.96113 6.15492 3.9006 6.20347C3.87929 6.22049 3.62283 6.30781 3.4997 6.48487C3.54458 6.45159 3.58946 6.41832 3.63434 6.38506C3.58022 6.42292 3.27888 6.76486 3.38033 6.70887C3.44256 6.67452 3.5063 6.50306 3.57154 6.54219C3.44841 6.63337 2.87892 7.24623 2.82065 7.28C2.81254 7.28469 2.8348 7.22874 2.82386 7.23534C2.81537 7.24049 2.68356 7.37956 2.65904 7.391C2.64434 7.39775 2.69393 7.32781 2.68299 7.3265C2.67432 7.3265 2.49744 7.48794 2.50913 7.51869C2.54213 7.46881 2.66677 7.35987 2.62321 7.43862C2.61756 7.44875 2.56287 7.47575 2.55608 7.48812C2.4931 7.6025 2.75295 7.33175 2.79444 7.29106C2.7224 7.39025 2.61077 7.49806 2.49536 7.60775V5.8652C2.59983 5.97382 2.70619 6.08577 2.80896 6.17084C2.86949 6.26624 2.66583 6.08245 2.73975 6.18505C2.89287 6.39789 2.81311 6.2093 2.82103 6.21273C2.88439 6.24033 2.94416 6.48999 3.01714 6.41763C3.07258 6.49473 3.04184 6.48243 3.14537 6.56637C3.13802 6.54907 3.13085 6.53176 3.12349 6.51445C3.27001 6.57622 3.38429 6.90161 3.35959 6.89324C3.2934 6.87061 3.21231 6.72258 3.20175 6.71362C3.18591 6.70036 3.07183 6.73392 2.97886 6.51003C2.86421 6.49456 3.19761 6.794 3.01941 6.68407C3.12237 6.77549 3.48895 7.2086 3.56852 7.24437C3.57814 7.24839 3.59549 7.16737 3.66941 7.29087C3.70449 7.34956 3.59059 7.23736 3.60077 7.26987C3.63245 7.37019 4.55532 8.24394 4.72824 8.41212C4.73955 8.42319 4.72013 8.43444 4.73107 8.44512C4.76501 8.47794 4.91021 8.57675 4.96301 8.6435C4.86722 8.49162 5.11085 8.72956 5.16912 8.79369C5.25756 8.891 5.22474 8.91219 5.25925 8.95794C5.39238 9.13419 5.69694 9.30969 5.75766 9.48912C5.81046 9.4235 5.93717 9.72537 6.03447 9.82325C6.11066 9.89994 6.26133 9.97137 6.18175 9.84481C6.3113 9.97906 6.46177 10.1066 6.58943 10.2264C6.61055 10.2462 6.56473 10.2356 6.60132 10.2687C6.6049 10.2717 6.62641 10.259 6.65827 10.2871C6.92152 10.5189 6.76424 10.4352 6.79988 10.4921C6.81987 10.5239 6.8359 10.5461 6.8491 10.5609C6.70107 10.4204 6.52741 10.2612 6.48234 10.2174C6.48234 10.2931 6.81025 10.529 6.88267 10.6214C6.88531 10.6246 6.85439 10.6355 6.85703 10.6385C6.88645 10.6709 7.09198 10.8599 7.07633 10.7947C7.07199 10.7771 6.98111 10.6867 6.87098 10.5817C6.90493 10.6061 6.90661 10.5611 6.91265 10.5652C6.98676 10.6158 7.11687 10.7907 7.16797 10.8477C7.17966 10.8607 7.194 10.8449 7.19588 10.8468C7.24189 10.8993 7.17872 10.922 7.27357 10.9282C7.3094 11.0703 7.0982 10.7696 7.08142 10.8222C7.0686 10.8626 7.65373 11.4157 7.69408 11.3722C7.69163 11.3786 7.6939 11.3919 7.70352 11.4142C7.72502 11.4639 7.88832 11.6172 7.92358 11.6369C7.92962 11.6399 7.96884 11.5974 7.97487 11.6028C7.99015 11.6161 8.15232 11.8409 8.24887 11.8891C8.21549 11.8443 8.18211 11.7997 8.14874 11.7551C8.38558 11.9898 8.36107 11.9414 8.29469 11.8509C8.29073 11.8469 8.28846 11.8415 8.28488 11.8376C8.23283 11.768 8.16325 11.6814 8.16533 11.6771C8.17004 11.6669 8.3226 11.8076 8.41576 11.9109H6.82307C6.89021 11.8511 6.9415 11.8158 6.92623 11.8608C6.92378 11.8677 6.88361 11.9037 6.8491 11.9367H8.38973C8.34711 11.8929 8.30977 11.8584 8.34617 11.9249C8.349 11.93 8.35899 11.9407 8.37238 11.954H6.86645C6.90699 11.9137 6.97168 11.8417 6.97865 11.8392C7.01411 11.8267 6.95245 11.915 6.90455 11.9919H8.33428C8.27658 11.9564 8.2251 11.9287 8.2268 11.9542C8.25867 11.9669 8.28772 11.987 8.31544 12.0106H6.92339C6.96658 11.9606 7.02127 11.9148 7.0637 11.8638C7.09349 11.8278 7.08105 11.7995 7.08463 11.795C7.14007 11.7292 7.12763 11.7845 7.14724 11.7639C7.1578 11.7526 7.23172 11.588 7.27226 11.6733C7.62055 11.2346 7.33505 11.5186 7.09651 11.7629C7.15007 11.6639 7.3111 11.5259 7.37314 11.4536C7.39539 11.4277 7.35994 11.4209 7.39652 11.3761C7.47176 11.2841 7.8968 10.9096 8.00693 10.8114C7.95036 10.8826 7.99203 10.8867 8.03993 10.8359C8.08783 10.7851 8.01561 10.796 8.02202 10.7832C8.029 10.7696 8.27565 10.5528 8.31035 10.5104C8.14667 10.6955 8.20889 10.679 8.35975 10.5337C8.34485 10.5616 8.32995 10.5896 8.31505 10.6175C8.39293 10.5217 8.61073 10.3747 8.65052 10.3143C8.65674 10.3047 8.60923 10.3137 8.61263 10.3085C8.64864 10.2566 8.81836 10.1268 8.81873 10.1133C8.81911 10.1021 8.73896 10.1495 8.7548 10.118C8.75819 10.1114 8.84588 10.076 8.90019 10.0092C8.92037 9.9845 8.88869 9.97981 8.89321 9.97306C8.93187 9.91737 8.93451 9.97569 9.01616 9.88475C9.07594 9.818 9.09329 9.74131 9.19078 9.66406C8.86493 9.91212 9.1227 9.6875 9.23132 9.55644C9.24886 9.53544 9.19927 9.51894 9.33052 9.4205C9.14515 9.7235 9.43196 9.38244 9.49702 9.31887C9.50079 9.31569 9.5238 9.33612 9.55567 9.305C9.55831 9.30237 9.53983 9.2915 9.56812 9.26112C9.83589 8.97369 9.67447 9.16719 9.74198 9.12912C9.77064 9.11281 9.8853 8.95737 9.92131 8.92062C9.92961 8.91237 9.94111 8.93131 9.97279 8.8985C10.0292 8.84037 10.0644 8.77287 10.101 8.73387C10.1054 8.72956 10.1297 8.75338 10.1936 8.67406C10.2117 8.65175 10.2258 8.62081 10.1902 8.64237C10.0722 8.71437 9.93111 8.933 9.80081 9.01737C9.68201 9.09425 9.98938 8.78469 10.0052 8.76856C10.0111 8.76275 9.96279 8.83475 10.0265 8.77606C10.0808 8.72581 10.135 8.58912 10.2221 8.52069C10.2287 8.51544 10.3264 8.48844 10.3256 8.49331C10.3245 8.49744 10.2364 8.60037 10.2605 8.59662C10.2634 8.59625 10.3239 8.5355 10.3396 8.53512C10.3586 8.53456 10.4757 8.59906 10.491 8.58837C10.53 8.56081 10.4876 8.56175 10.5106 8.54169C10.56 8.49875 10.7474 8.36581 10.721 8.32925C10.6927 8.35381 10.6643 8.37838 10.636 8.40275C10.7803 8.25294 10.7039 8.30206 10.719 8.27544C10.735 8.24675 10.7563 8.2805 10.8087 8.23362C10.8202 8.2235 11.0226 8.01069 11.0071 8.003C10.9106 8.13575 10.9188 8.05925 10.913 8.06394C10.8906 8.08175 10.884 8.12656 10.8566 8.153C10.6633 8.33919 10.8249 8.11831 10.7721 8.15525C10.754 8.168 10.7397 8.21487 10.7322 8.22069C10.7082 8.23906 10.6863 8.21806 10.6739 8.234C10.6447 8.27094 10.7139 8.26269 10.7129 8.26681C10.7022 8.31519 10.5623 8.40725 10.6017 8.30244C10.5462 8.33375 10.5813 8.37875 10.5308 8.39712C10.4306 8.4335 10.5413 8.33956 10.5638 8.30675C10.6445 8.18862 10.6894 8.17456 10.8253 8.02906C10.8742 7.97675 10.9149 7.89744 10.9373 7.87287C10.9517 7.8575 11.1599 7.7855 11.0576 7.67581C11.1223 7.63175 11.2779 7.61637 11.3309 7.55731C11.3784 7.50425 11.3248 7.48287 11.328 7.47669C11.3329 7.46731 11.3969 7.40956 11.4122 7.38387C11.4301 7.3535 11.4037 7.35125 11.4361 7.30737C11.517 7.19799 11.553 7.23866 11.5653 7.2314C11.708 7.14685 11.6036 7.14213 11.6243 7.11266C11.6439 7.08528 11.9945 6.77847 12.0499 6.69575C12.0295 6.73147 12.009 6.76719 11.9884 6.80291C12.0629 6.77649 12.0772 6.68441 12.1212 6.72616C12.0622 6.64702 12.2128 6.58942 12.2422 6.55649C12.2539 6.5435 12.2411 6.53272 12.256 6.51684C12.3143 6.45477 12.4599 6.32881 12.4866 6.2903C12.6024 6.12389 12.1974 6.44118 12.1663 6.46694C12.2241 6.41097 12.5313 6.0746 12.3497 6.18897C12.3216 6.20667 12.312 6.27792 12.3003 6.29195C12.2211 6.38658 12.2619 6.29075 12.2524 6.29491C12.2366 6.30222 12.206 6.386 12.1877 6.39789C12.1815 6.40188 12.1889 6.3445 12.1053 6.42665C12.1217 6.36172 12.3754 6.14911 12.4003 6.11292C12.4091 6.10004 12.2884 6.11624 12.5392 5.96776C12.5321 5.96525 12.5249 5.96274 12.5178 5.96022C12.5704 5.90604 12.623 5.85183 12.6756 5.79762V7.67544C12.6166 7.61881 12.5577 7.56237 12.4989 7.50594C12.5223 7.50687 12.6071 7.54681 12.5236 7.47331C12.4755 7.43094 12.4842 7.48887 12.4795 7.4855C12.4319 7.45194 11.7201 6.72764 11.5777 6.59163C11.5293 6.54532 11.3771 6.4336 11.3665 6.42395C11.3043 6.36594 11.1035 6.14058 11.0582 6.101C11.0297 6.07634 11.0343 6.12215 11.0114 6.09755C10.9903 6.07464 11.0333 6.07743 11.0275 6.07008C10.9803 6.00879 10.5411 5.6243 10.4619 5.50796C10.5163 5.57321 10.8555 5.83074 10.8636 5.81067C10.8642 5.80745 10.8068 5.71998 10.7844 5.71248C10.7769 5.67056 10.639 5.63861 10.603 5.58226C10.599 5.57589 10.6494 5.56687 10.5721 5.4794C10.5455 5.44929 10.448 5.39823 10.399 5.2979C10.2779 5.20239 9.74574 4.59674 9.67465 4.58954C9.67182 4.59005 9.74122 4.68087 9.6739 4.63991C9.58433 4.58546 9.70765 4.59162 9.62864 4.50296C9.61676 4.48959 9.37691 4.2628 9.36559 4.25879C9.26188 4.22103 9.4529 4.43761 9.4463 4.43857C9.42952 4.44104 9.25376 4.2779 9.24904 4.26879C9.2449 4.2599 9.42707 4.35432 9.24397 4.20521C9.25792 4.22936 9.27168 4.25351 9.28563 4.27764C9.19719 4.20988 9.21982 4.17247 9.20266 4.15177C9.14967 4.08733 9.03992 4.06944 9.00202 3.91923C8.99203 3.87946 9.0503 3.90412 9.04935 3.89877C9.03955 3.84884 8.94715 3.86452 8.94243 3.77954C8.94205 3.77317 9.07123 3.85359 8.88775 3.671C8.89642 3.68741 8.90529 3.70381 8.91396 3.72022C8.87945 3.70306 8.68843 3.52334 8.66543 3.49646C8.59848 3.41787 8.68994 3.45363 8.61319 3.38392C8.62224 3.46856 8.39388 3.25149 8.43951 3.23171C8.36729 3.24159 8.20927 3.02146 8.12101 2.93184C8.06539 2.87531 7.93282 2.77906 7.91698 2.75919C7.89775 2.73498 7.93244 2.71368 7.89926 2.66836C7.88983 2.65544 7.75236 2.55952 7.67863 2.42849C7.6643 2.40312 7.67015 2.31423 7.71899 2.33921C7.80271 2.38196 7.88418 2.53923 7.91076 2.50976C7.93905 2.47805 7.75971 2.33536 7.72011 2.28826C7.53776 2.07078 7.6856 2.15414 7.69013 2.13937C7.70031 2.10269 7.59 1.99445 7.58755 1.98779C7.57793 1.95961 7.6741 2.01832 7.68975 2.00521C7.70974 1.98804 7.6379 1.84946 7.66826 1.86708C7.71163 1.89236 7.78046 2.01684 7.788 2.02164C7.88625 2.08327 7.81968 1.93113 7.81063 1.87994C7.80799 1.86432 7.85513 1.89001 7.84948 1.88054C7.76236 1.73621 7.76443 1.91654 7.69315 1.83378C7.6296 1.75996 7.74652 1.81991 7.74557 1.81572C7.74388 1.81064 7.66297 1.72717 7.66015 1.70437C7.65883 1.69304 7.9281 1.85111 7.94394 1.8176C7.87021 1.75509 7.7963 1.69256 7.72257 1.63004C7.74954 1.59264 7.82402 1.71397 7.83759 1.72077C7.86475 1.73448 7.82401 1.66151 7.83664 1.6538C7.84438 1.64866 7.93452 1.69224 7.8836 1.62258C7.86607 1.59862 7.79989 1.57773 7.74709 1.47942C8.04031 1.71217 7.87569 1.51252 7.87946 1.49341C7.88323 1.47449 8.03597 1.57286 7.87851 1.42572C7.9347 1.35669 7.90151 1.40926 7.95601 1.44144C8.02277 1.48081 7.92057 1.33807 8.09915 1.54689C8.11763 1.50667 7.95922 1.35342 7.95338 1.34287C7.94829 1.33366 7.99751 1.3538 7.98996 1.33662C7.90039 1.13454 7.97507 1.26033 7.96884 1.18209C7.96847 1.17513 7.84344 1.02414 7.95413 1.12364C8.15571 1.30496 8.19419 1.42616 8.31563 1.36966C8.21229 1.19002 7.98279 1.07613 7.93866 1.03419C7.87115 0.969894 7.95772 1.01988 7.9547 1.00672C7.95357 1.00227 7.89511 0.947168 7.89567 0.944974C7.92302 0.837068 8.15024 1.19583 8.25471 1.27614C8.24 1.24136 8.22548 1.20656 8.21077 1.17177C8.24491 1.20483 8.27885 1.23791 8.31298 1.27098C8.17306 1.09119 8.31505 1.25765 8.41009 1.24272C8.4314 1.23935 8.30487 1.15567 8.45931 1.24102C8.3786 1.145 8.41821 1.16193 8.32242 1.09754C8.34655 1.07769 8.5519 1.23251 8.6345 1.29209C8.40764 1.01726 8.47024 1.24034 8.29563 0.9815C8.22793 0.968544 8.33712 1.06649 8.32411 1.06256C8.27754 1.04846 8.23208 0.952062 8.08933 0.923093C8.06595 0.918443 8.0965 1.00584 8.01032 0.917356C8.00089 0.907531 7.96959 0.827637 7.97204 0.826643C7.99863 0.814906 8.04672 0.876987 8.05709 0.871287C8.06671 0.865868 8.00052 0.809131 8.00241 0.806825C8.02466 0.781025 8.06312 0.848805 8.06293 0.833618C8.06256 0.800712 7.89265 0.528837 8.16665 0.831555C7.89925 0.61968 8.10933 0.827374 8.21342 0.910043C8.23982 0.931156 8.26038 0.922887 8.29941 0.951725C8.34957 0.988793 8.39388 1.04656 8.41915 1.06644C8.44631 1.08776 8.34203 0.916456 8.53192 1.12542C8.46384 0.990612 8.24792 0.847643 8.17174 0.724625C8.01787 0.476356 8.37068 0.806599 8.41104 0.837443C8.42179 0.845637 8.40934 0.794675 8.41669 0.799794C8.42895 0.808269 8.61432 1.01043 8.64959 1.01351C8.68466 1.01656 8.57755 0.943475 8.5883 0.920862C8.59565 0.905618 8.85004 1.11886 8.73086 0.985005C8.64864 0.892793 8.44215 0.777499 8.46365 0.702106C8.59622 0.826006 8.72897 0.949905 8.86153 1.07381C8.80968 0.98538 8.75783 0.896974 8.70597 0.808549C8.85607 0.946268 8.96016 1.09117 9.12365 1.20116C8.85343 0.814531 9.27809 1.26046 9.29016 1.25806C9.29601 1.25536 9.21454 1.07851 9.20247 1.049C9.33579 1.14487 9.69408 1.4831 9.54926 1.22082C9.57302 1.27104 9.69596 1.32738 9.69728 1.32372C9.71199 1.28626 9.49909 1.10844 9.55491 1.11661C9.6194 1.12604 9.63392 1.21477 9.69389 1.26843C10.0016 1.54357 10.0586 1.32747 10.3299 1.64043C10.329 1.62978 10.3281 1.61913 10.3271 1.60848C10.6379 1.93293 10.9486 2.25738 11.2594 2.58183C11.4259 2.66411 11.7831 2.96853 11.9413 3.13512C11.9733 3.16863 12.1123 3.35062 12.1206 3.36654C12.1357 3.39626 12.0092 3.27601 12.0512 3.34539C12.0603 3.35996 12.3237 3.64025 12.3275 3.59756C12.2998 3.56448 12.1923 3.48112 12.1823 3.46006C12.1118 3.31156 12.9207 4.17867 12.9782 4.20429C12.9673 4.17821 12.9564 4.15214 12.9452 4.12606C12.9946 4.18252 13.0439 4.23899 13.0931 4.29545ZM8.77385 3.74313C8.7186 3.73486 8.65637 3.63796 8.60263 3.59765C8.52833 3.54207 8.32712 3.52201 8.46554 3.47919C8.56831 3.56716 8.67107 3.65516 8.77385 3.74313ZM10.1368 5.16792C10.0854 5.09159 10.1857 5.09067 10.2172 5.16389C10.2206 5.17207 10.2066 5.2711 10.1368 5.16792ZM9.48854 4.47543C9.49175 4.47746 9.54587 4.53389 9.547 4.53661C9.57641 4.60627 9.41349 4.43598 9.48854 4.47543ZM12.6714 5.88427C12.7401 5.81184 12.6428 5.8169 12.6177 5.87945C12.6162 5.88339 12.6669 5.88901 12.6714 5.88427ZM12.7137 7.62819C12.6999 7.53256 12.5059 7.50575 12.602 7.58469C12.6115 7.59237 12.7141 7.63269 12.7137 7.62819ZM9.92829 4.92057C9.9513 4.91202 10.0099 4.98541 10.0343 5.01727C10.0192 5.03084 9.9579 4.94637 9.92829 4.92057ZM11.6102 6.58411C11.6254 6.57453 11.3948 6.34657 11.3627 6.34728C11.4059 6.37645 11.5964 6.59259 11.6102 6.58411ZM12.2174 7.15312C12.2136 7.14519 12.131 7.06946 12.1223 7.08266C12.1466 7.13553 12.2338 7.18889 12.2174 7.15312ZM12.0278 6.50679C12.0263 6.51382 12.1555 6.52407 11.9686 6.61856C11.9413 6.63245 11.9969 6.54082 11.9871 6.54564C11.9667 6.55608 11.9524 6.56592 11.9422 6.57524C12.002 6.50422 12.0674 6.4337 12.0784 6.43135C12.1293 6.42042 12.0286 6.50375 12.0278 6.50679ZM11.4646 7.17037C11.4623 7.19514 11.3699 7.27494 11.3456 7.28994C11.3412 7.29237 11.3262 7.24796 11.2894 7.28881C11.26 7.32181 11.3373 7.30587 11.2717 7.36137C11.2051 7.41762 11.2654 7.31431 11.2585 7.31806C11.2492 7.32312 11.168 7.4315 11.1531 7.41087C11.1421 7.3955 11.253 7.30306 11.2752 7.27512C11.3039 7.23954 11.2428 7.25656 11.3015 7.20766C11.3382 7.17691 11.3582 7.23404 11.3673 7.22887C11.3748 7.22448 11.4714 7.08453 11.4646 7.17037C11.4648 7.17035 11.4644 7.17039 11.4646 7.17037ZM11.926 6.59461C11.9298 6.58841 11.9349 6.58194 11.9422 6.57524C11.9368 6.58169 11.9315 6.5882 11.926 6.59461ZM8.97618 3.91051C8.99768 3.95553 8.88341 3.87234 8.86153 3.81954C8.87341 3.80637 8.97279 3.90339 8.97618 3.91051ZM11.8968 6.68647C11.7895 6.77381 11.8479 6.68922 11.926 6.59461C11.9058 6.62921 11.9326 6.65712 11.8968 6.68647ZM10.7844 5.71248C10.7855 5.71944 10.7836 5.7265 10.7767 5.73417C10.7738 5.71539 10.7772 5.71012 10.7844 5.71248ZM10.9986 5.95182C11.0991 6.00699 10.9398 5.85033 10.9247 5.86734C10.919 5.87384 10.9947 5.94961 10.9986 5.95182ZM12.5787 5.97223C12.5881 5.96731 12.5451 6.1451 12.655 5.93437C12.5611 6.01182 12.6443 5.91434 12.6371 5.90977C12.6166 5.89623 12.4887 6.05606 12.4493 6.08047C12.455 6.13576 12.5481 5.98826 12.5787 5.97223C12.5787 5.97228 12.5787 5.97217 12.5787 5.97223ZM10.339 8.25669C10.3405 8.21937 10.4084 8.1635 10.4514 8.123C10.4497 8.16031 10.3818 8.21619 10.339 8.25669ZM3.85327 6.26197C3.58305 6.5636 3.47292 6.5279 3.76426 6.29572C3.76992 6.29122 3.86326 6.23729 3.85327 6.26197ZM3.58399 6.9809C3.57927 7.03942 3.48461 6.9556 3.43916 6.88413C3.42879 6.86797 3.41182 6.78706 3.47424 6.83658C3.43388 6.87316 3.50592 6.97411 3.58399 6.9809ZM11.8619 6.76154C11.8547 6.81089 11.7523 6.88278 11.7031 6.92542C11.7137 6.88008 11.8146 6.79544 11.8619 6.76154ZM2.87288 7.16105C2.84026 7.18871 2.84762 7.23654 2.85497 7.23365C2.88891 7.22094 2.92304 7.14249 2.87288 7.16105ZM12.1474 6.48425C12.1642 6.49289 12.0606 6.62015 12.021 6.59697C12.0482 6.57462 12.1366 6.47919 12.1474 6.48425ZM10.4274 8.18769C10.4518 8.17625 10.3703 8.28031 10.3358 8.30187C10.3245 8.28631 10.4114 8.19519 10.4274 8.18769ZM2.54213 5.96435C2.56683 5.99366 2.63378 6.06162 2.65245 6.05793C2.67564 6.05326 2.57173 5.95942 2.54213 5.96435ZM7.40766 2.62263C7.41614 2.62424 7.34769 2.76442 7.29187 2.80158C7.18608 2.87202 7.40049 2.62278 7.40766 2.62263ZM3.14481 6.86236C3.25644 6.80368 3.13613 6.87254 3.16762 6.89641C3.22608 6.84029 3.37034 6.69957 3.24475 6.77015C3.22042 6.78391 3.17328 6.83752 3.14481 6.86236ZM3.05674 6.93144C3.05655 6.94946 3.02337 7.0388 3.07447 6.9839C3.09804 6.95847 3.10633 6.88777 3.05674 6.93144ZM6.77122 3.28006C6.67015 3.33172 7.0339 2.99611 7.04842 2.99036C7.05596 2.98732 7.06162 2.98599 7.06539 2.9858C7.07048 2.96527 7.13535 2.89799 7.16269 2.90994C7.14119 2.92809 7.08878 2.98372 7.0803 2.98781C7.07653 2.98959 7.07368 2.99073 7.07142 2.99124C7.0652 3.03147 6.79046 3.27012 6.77122 3.28006ZM6.16478 3.83276C6.21607 3.7097 6.2932 3.75552 6.28754 3.76499C6.21758 3.88482 6.23417 3.77786 6.22927 3.77864C6.21909 3.78176 6.17213 3.87027 6.16478 3.83276C6.16478 3.83283 6.16478 3.83266 6.16478 3.83276ZM6.64186 3.38844C6.64469 3.38407 6.72012 3.31287 6.72408 3.31085C6.80498 3.27153 6.5917 3.47304 6.64186 3.38844ZM11.0437 7.6745C10.985 7.72062 11.0139 7.64675 11.0571 7.62012C11.0608 7.61806 11.0955 7.63362 11.0437 7.6745ZM3.02072 6.97929C3.00432 6.98716 2.67602 7.2815 2.72901 7.29688C2.75145 7.2665 3.12387 6.93123 3.02072 6.97929ZM4.18723 7.67C4.13254 7.61506 4.22475 7.64262 4.2421 7.68369C4.24851 7.69906 4.201 7.68387 4.18723 7.67ZM12.333 6.35816C12.3724 6.28372 12.4199 6.35461 12.3501 6.38358C12.3473 6.38472 12.3313 6.36108 12.333 6.35816ZM3.76615 7.21441C3.97546 7.38369 3.82819 7.44069 3.61604 7.16103C3.6283 7.16418 3.64056 7.16733 3.65282 7.17048C3.38335 6.87202 3.64056 7.14393 3.71599 7.20759C3.74465 7.23177 3.73956 7.193 3.76615 7.21441C3.76615 7.21451 3.76615 7.21432 3.76615 7.21441ZM4.4748 7.95969C4.58493 8.21375 4.28321 7.81962 4.17365 7.72962C4.30075 7.79619 4.42238 7.92631 4.28133 7.72494C4.53854 7.96887 4.40503 7.89369 4.41257 7.90606C4.42181 7.9205 4.47009 7.94881 4.4748 7.95969ZM3.99206 7.48081C3.97942 7.47237 3.91455 7.37862 3.88344 7.35237C3.94831 7.36775 4.07673 7.53631 3.99206 7.48081ZM5.57247 4.45528C5.55965 4.42936 5.56154 4.39887 5.63168 4.34364C5.62207 4.37264 5.59038 4.42091 5.57247 4.45528ZM8.8159 3.58132C8.77385 3.53692 8.69503 3.44397 8.70106 3.49057C8.7022 3.49516 8.80421 3.59261 8.8159 3.58132ZM2.7539 6.2597C2.76087 6.27123 2.99716 6.50945 2.93644 6.4064C2.91815 6.37531 2.69883 6.16274 2.7539 6.2597ZM3.33338 6.64195C3.31339 6.66157 3.23607 6.74564 3.2389 6.75194C3.24927 6.77319 3.33998 6.66575 3.33338 6.64195ZM8.61752 3.34451C8.61375 3.33684 8.47798 3.20898 8.48307 3.23279C8.49288 3.27796 8.62996 3.37083 8.61752 3.34451ZM10.8979 7.91C10.8876 7.92181 10.8517 7.91525 10.8478 7.91881C10.8385 7.92744 10.6443 8.13669 10.6944 8.03281C10.7029 8.01556 11.0043 7.73656 11.0448 7.70169C11.0884 7.71594 10.9366 7.81212 10.9092 7.84512C10.9045 7.85094 10.9255 7.87869 10.8979 7.91ZM5.87928 4.10941C5.86967 4.08222 6.0952 3.83369 6.11481 3.85865C6.03636 3.94224 5.95773 4.02582 5.87928 4.10941ZM5.75538 4.22647C5.69165 4.26395 5.80611 4.14153 5.84684 4.11243C5.85966 4.12437 5.76462 4.22101 5.75538 4.22647ZM2.81367 7.02185C2.79425 7.05009 2.89457 7.00377 2.88344 7.02532C2.87609 7.03902 2.81273 7.08207 2.80406 7.10737C2.80198 7.11483 2.88156 7.08582 2.89627 7.06908C2.9172 7.04538 2.87553 7.04718 2.89985 7.02277C2.98056 6.94175 3.06655 6.88441 3.14217 6.80853C3.14896 6.80163 3.08183 6.84057 3.14047 6.78258C3.14952 6.7736 3.22476 6.74035 3.29171 6.66766C3.38147 6.44949 3.55872 6.39986 3.73145 6.18153C3.71807 6.18282 3.55495 6.31246 3.54571 6.32045C3.37109 6.47294 3.07598 6.76394 2.904 6.93461C2.85988 6.97839 2.89514 6.97074 2.87666 6.99012C2.86195 7.0054 2.85441 6.96241 2.81367 7.02185ZM8.85286 3.59021C8.85757 3.54449 8.76914 3.48852 8.72425 3.44127C8.71766 3.4802 8.81326 3.53973 8.85286 3.59021ZM4.66828 5.26824C4.64621 5.29224 4.56682 5.35604 4.56852 5.36952C4.57078 5.38705 4.68072 5.29025 4.66828 5.26824ZM9.75045 9.03669C9.74876 9.0395 9.69181 9.09369 9.68879 9.095C9.61864 9.12425 9.79006 8.96225 9.75045 9.03669ZM8.41274 10.3571C8.37351 10.4022 8.33881 10.4525 8.30412 10.4461C8.3341 10.4225 8.40331 10.3379 8.41274 10.3571ZM8.13911 11.6637C8.12082 11.6992 8.01126 11.5554 7.98958 11.5291C8.01051 11.5261 8.15212 11.6381 8.13911 11.6637ZM5.47857 4.38026C5.55795 4.30454 5.50081 4.28026 5.56851 4.24955C5.57983 4.24466 5.6909 4.30329 5.57342 4.35659C5.55249 4.36619 5.59227 4.28628 5.47857 4.38026ZM3.57663 7.12023C3.5391 7.1183 3.48254 7.05159 3.44219 7.00865C3.46481 7.00479 3.5457 7.09196 3.57663 7.12023ZM8.39916 3.0869C8.38784 3.02561 8.20079 2.87666 8.22568 2.93465C8.22945 2.94271 8.37653 3.06245 8.39916 3.0869ZM11.7456 7.03893C11.6961 7.12756 11.8459 6.99091 11.8717 6.9266C11.8525 6.94826 11.7489 7.03299 11.7456 7.03893ZM7.03088 11.7614C7.02843 11.7656 6.95301 11.8366 6.94867 11.8389C6.86777 11.8782 7.08104 11.6767 7.03088 11.7614ZM8.88379 9.95375C8.87361 9.99631 8.68635 10.1564 8.63091 10.1789C8.64468 10.1178 8.89624 9.90087 8.88379 9.95375ZM5.17026 4.70986C5.22494 4.65387 5.28263 4.60655 5.34052 4.5629C5.34354 4.58722 5.18647 4.71425 5.17026 4.70986ZM3.91927 5.93465C3.86741 5.97549 3.90211 5.99092 3.90588 5.98882C3.94887 5.96215 3.97791 5.88843 3.91927 5.93465ZM8.83702 3.50026C8.84362 3.46167 8.74783 3.40145 8.70842 3.35137C8.70351 3.38217 8.79855 3.46662 8.83702 3.50026ZM4.62396 8.20062C4.65771 8.28312 4.39145 8.07537 4.35732 8.00975C4.36882 7.991 4.61868 8.18881 4.62396 8.20062ZM11.9948 6.85878C12.0175 6.87183 12.0957 6.75129 12.0661 6.764C12.0473 6.77202 11.9811 6.85055 11.9948 6.85878ZM4.24814 7.88075C4.22042 7.86387 4.18591 7.79469 4.21495 7.80219C4.25228 7.81194 4.25549 7.88487 4.24814 7.88075ZM2.45689 7.34506C2.44445 7.352 2.3315 7.50069 2.40372 7.46487C2.45407 7.43994 2.43427 7.40844 2.44313 7.39962C2.45313 7.38987 2.69525 7.21158 2.45689 7.34506ZM5.93906 9.53919C5.88287 9.49681 5.83082 9.42931 5.77859 9.37831C5.81065 9.38825 5.93265 9.50375 5.93906 9.53919ZM11.615 7.24604C11.6341 7.24124 11.9662 6.91977 11.7578 7.08282C11.7457 7.09237 11.5566 7.26071 11.615 7.24604ZM4.59303 5.25554C4.59794 5.22487 4.50422 5.3111 4.48461 5.3444C4.49215 5.36829 4.59228 5.2598 4.59303 5.25554ZM5.75652 9.39237C5.71918 9.37006 5.67298 9.30819 5.63508 9.27237C5.65337 9.26656 5.75577 9.36725 5.75652 9.39237ZM7.84004 11.4911C7.78799 11.4249 7.71162 11.3557 7.69578 11.3692C7.69691 11.3656 7.69654 11.3604 7.69408 11.3532C7.69182 11.3459 7.6213 11.2897 7.59886 11.2571C7.46346 11.0632 8.25453 11.8741 7.74727 11.4526C7.7782 11.4654 7.80911 11.4781 7.84004 11.4911ZM9.15401 9.75406C9.20549 9.73831 9.27734 9.62225 9.24585 9.63969C9.22398 9.65169 9.10215 9.76962 9.15401 9.75406ZM7.86946 11.0523C7.88266 11.0456 7.96224 10.9415 7.95508 10.9299C7.89228 10.9726 7.80874 11.0832 7.86946 11.0523ZM9.43366 9.51762C9.45761 9.49925 9.45554 9.44375 9.45177 9.44487C9.41971 9.45575 9.38218 9.53694 9.43366 9.51762ZM5.23964 4.46294C5.20004 4.48597 5.12066 4.6064 5.11802 4.64709C5.11029 4.64744 5.09445 4.65354 5.06861 4.66775C5.06861 4.66781 5.0688 4.66769 5.06861 4.66775C5.03392 4.68702 4.21571 5.48369 4.79575 4.98012C4.81385 4.96439 4.77349 4.97045 4.84572 4.90464C4.85062 4.9003 4.86684 4.91195 4.88174 4.89858C4.91568 4.86774 5.09765 4.70435 5.12104 4.65856C5.12405 4.66083 5.12876 4.66106 5.13574 4.65856C5.19854 4.63619 5.27057 4.44504 5.23964 4.46294ZM7.68957 11.2364C7.71314 11.2231 7.76687 11.1599 7.76065 11.1416C7.72558 11.1644 7.6345 11.267 7.68957 11.2364ZM11.6758 7.28637C11.7237 7.25889 11.8004 7.14492 11.7614 7.16364C11.7374 7.17507 11.6205 7.31806 11.6758 7.28637ZM8.27018 10.6458C8.03918 10.8466 8.21964 10.6985 8.20475 10.7493C8.22643 10.7148 8.2483 10.6803 8.27018 10.6458ZM6.28791 3.51367C6.24926 3.54384 6.25415 3.46799 6.31148 3.44949C6.32958 3.44375 6.30941 3.49672 6.28791 3.51367ZM7.83476 1.95344C7.77366 1.95121 7.93622 1.82671 7.9019 1.90407C7.90002 1.90737 7.83815 1.95254 7.83476 1.95344ZM6.73313 3.02309C6.73143 3.06783 6.71861 3.08555 6.64733 3.14585C6.73897 3.04269 6.62923 3.11379 6.73313 3.02309ZM9.63148 9.30969C9.67692 9.30106 9.75141 9.22419 9.71049 9.22831C9.70653 9.22887 9.62921 9.28531 9.63148 9.30969ZM5.11802 4.64709C5.1248 4.64677 5.12519 4.65069 5.12104 4.65856C5.1184 4.6564 5.11764 4.65258 5.11802 4.64709ZM9.23887 9.72987C9.22794 9.71356 9.10706 9.82325 9.10404 9.82944C9.06142 9.91887 9.19192 9.77806 9.23887 9.72987ZM12.4589 6.54577C12.4634 6.53842 12.3899 6.54164 12.3801 6.57877C12.3725 6.60755 12.4419 6.57333 12.4589 6.54577ZM6.94849 2.79159C6.98507 2.75523 7.03655 2.70401 7.06276 2.71117C7.03561 2.73299 6.95999 2.80454 6.94849 2.79159ZM7.75556 1.98661C7.73199 2.04914 7.63318 2.1473 7.5668 2.20679C7.53984 2.18223 7.72105 2.033 7.75556 1.98661ZM5.34864 4.37384C5.34449 4.37579 5.24511 4.45934 5.27491 4.4641C5.31865 4.47115 5.3839 4.35747 5.34864 4.37384ZM12.262 6.70436C12.233 6.75701 12.3641 6.69955 12.379 6.62836C12.3867 6.59184 12.2669 6.69549 12.262 6.70436ZM9.89245 9.09781C9.93658 9.03406 9.7846 9.14975 9.78403 9.18631C9.81025 9.16306 9.8768 9.1205 9.89245 9.09781ZM8.06859 10.9479C8.29148 10.8301 8.1033 10.8277 8.08142 10.8661C8.07822 10.8716 8.06312 10.9507 8.06859 10.9479ZM8.0801 2.56216C8.04879 2.54534 8.11253 2.66103 8.14139 2.65541C8.15949 2.65181 8.10028 2.57291 8.0801 2.56216ZM6.8491 10.5609C6.85646 10.568 6.86382 10.5749 6.87098 10.5817C6.86476 10.5774 6.85759 10.5706 6.8491 10.5609ZM10.4538 8.67875C10.2602 8.72487 10.3296 8.76875 10.3188 8.77887C10.2954 8.80044 10.223 8.83269 10.1838 8.87825C10.2242 8.82162 10.2647 8.765 10.3051 8.70837C10.2613 8.74119 9.89999 9.04644 9.9049 9.06537C9.91206 9.09219 10.0118 8.98231 10.0164 8.98081C10.023 8.97856 10.0867 9.00931 10.0982 9.00144C10.117 8.98831 10.3974 8.71156 10.4538 8.67875ZM8.41727 10.5849C8.38408 10.6066 8.35749 10.5957 8.34938 10.6128C8.34655 10.6186 8.3637 10.6372 8.35352 10.6565C8.37464 10.6327 8.39596 10.6087 8.41727 10.5849ZM10.6026 8.399C10.6586 8.38681 10.4978 8.53025 10.4904 8.53269C10.4497 8.54375 10.557 8.40875 10.6026 8.399ZM9.3124 9.68825C9.31919 9.68394 9.44309 9.57444 9.43007 9.56337C9.38972 9.58494 9.23056 9.73775 9.3124 9.68825ZM8.33637 10.676C8.29319 10.7148 8.19739 10.7741 8.23322 10.7921C8.26754 10.7534 8.30205 10.7146 8.33637 10.676ZM12.1785 6.90057C12.2977 6.86744 12.2074 6.84944 12.1259 6.90279C12.1248 6.94226 12.1591 6.90605 12.1785 6.90057ZM12.4544 6.68984C12.4832 6.67644 12.6933 6.45076 12.6373 6.46134C12.6173 6.46509 12.5121 6.6103 12.5047 6.6145C12.4936 6.62092 12.5087 6.55608 12.4467 6.62767C12.4591 6.63222 12.4446 6.69451 12.4544 6.68984ZM12.269 6.86516C12.3774 6.82229 12.3343 6.74553 12.2771 6.80201C12.2547 6.82404 12.2536 6.87121 12.269 6.86516ZM11.9545 7.16767C11.9875 7.14624 12.0684 7.08234 12.0984 7.0127C12.0297 7.07757 11.9611 7.14245 11.8924 7.20732C11.896 7.22628 11.9254 7.18659 11.9545 7.16767C11.9547 7.16761 11.9545 7.16774 11.9545 7.16767ZM8.05652 1.38074C7.9792 1.42362 8.11139 1.27927 8.12139 1.2776C8.15269 1.27413 8.09103 1.36158 8.05652 1.38074ZM8.15685 1.5512C8.14686 1.5278 8.15836 1.49469 8.10971 1.46975C8.13026 1.52298 8.15082 1.57621 8.17118 1.62946C8.23794 1.62042 8.1676 1.57683 8.15685 1.5512ZM8.15364 1.2731C8.15987 1.27739 8.18946 1.19111 8.21813 1.29691C8.23755 1.36841 7.96375 1.14701 7.94489 1.07679C8.00636 1.1141 8.10122 1.23577 8.15364 1.2731ZM7.97092 0.590225C7.97261 0.582762 8.07388 0.669762 8.08142 0.683862C8.12159 0.758018 7.96149 0.63035 7.97092 0.590225ZM8.26055 0.900425C8.22774 0.845206 8.33298 0.935375 8.35561 0.970887C8.34769 0.984462 8.26583 0.908843 8.26055 0.900425ZM6.60396 1.14839C6.51665 1.15664 6.55889 1.28388 6.61546 1.1936C6.6181 1.18931 6.60792 1.14828 6.60396 1.14839ZM8.12178 0.623505C8.15478 0.678724 8.04955 0.588555 8.02674 0.553043C8.03485 0.53958 8.11668 0.615162 8.12178 0.623505ZM6.47611 1.08819C6.38408 1.12308 6.50194 1.19581 6.51381 1.19174C6.56171 1.17434 6.63639 1.02551 6.64997 0.993443C6.49648 1.17466 6.51948 1.07176 6.47611 1.08819ZM6.24039 1.43673C6.19155 1.50551 6.36164 1.37504 6.3639 1.31996C6.33581 1.35037 6.25416 1.41714 6.24039 1.43673ZM5.85175 1.76214C5.81667 1.79026 5.71408 1.87587 5.71333 1.90655C5.7452 1.86942 5.85382 1.79082 5.85175 1.76214ZM5.73503 1.78871C5.66488 1.81767 5.71258 1.88868 5.75199 1.81422C5.7535 1.81134 5.73785 1.78803 5.73503 1.78871ZM5.43482 2.04438C5.37862 2.05317 5.39918 2.14737 5.45349 2.09654C5.46952 2.08134 5.44104 2.04365 5.43482 2.04438ZM6.29375 1.06509C6.23699 1.10127 6.21834 1.20196 6.32224 1.10763C6.29358 1.14862 6.2651 1.18961 6.23644 1.23059C6.38975 1.12413 6.32299 1.07671 6.36278 1.04189C6.41841 0.993293 6.4614 1.04437 6.46573 1.06955C6.47969 0.998187 6.6611 0.816781 6.76085 0.706737C6.65619 0.786556 6.48516 0.914768 6.38635 0.997812C6.35806 1.02149 6.3458 1.0595 6.32204 1.08014C6.28414 1.11316 6.29677 1.06336 6.29375 1.06509C6.29375 1.06514 6.29375 1.06503 6.29375 1.06509ZM5.06766 2.40768C4.94528 2.47602 5.06371 2.47351 5.10746 2.40956C5.10897 2.40646 5.07087 2.40596 5.06766 2.40768ZM8.17099 0.322587C8.27452 0.473599 8.14968 0.413206 8.46535 0.630368C8.31864 0.553062 8.43442 0.648837 8.39859 0.640887C8.36993 0.634362 8.31336 0.559831 8.32939 0.619925C8.30318 0.545918 8.0782 0.335412 8.07236 0.321837C8.07236 0.321762 8.07236 0.321931 8.07236 0.321837C8.06896 0.313719 8.13799 0.274437 8.17099 0.322587ZM5.69995 1.61206C5.59774 1.57391 5.69674 1.69721 5.57586 1.70161C5.577 1.86862 5.80631 1.47249 5.91587 1.50571C5.56663 1.83639 6.21174 1.35213 5.86684 1.48242C6.1018 1.32611 5.91793 1.4054 5.93453 1.36177C5.95244 1.31516 6.07897 1.2206 6.04729 1.20018C6.0471 1.20024 6.04729 1.20011 6.04729 1.20018C5.98129 1.26942 5.91511 1.33886 5.84911 1.40812C5.97187 1.39824 5.81648 1.51919 5.72352 1.52021C5.7156 1.55082 5.70768 1.58144 5.69995 1.61206ZM6.13668 1.28311C6.12876 1.28847 5.98922 1.44301 6.00996 1.44479C6.03692 1.4324 6.23756 1.21563 6.13668 1.28311ZM6.77348 0.6254C6.72049 0.677919 6.62753 0.748399 6.61999 0.798256C6.67317 0.745718 6.76594 0.675237 6.77348 0.6254ZM4.0424 3.33296C3.99243 3.41744 4.20552 3.21592 4.12463 3.25514C4.12067 3.25711 4.04504 3.32883 4.0424 3.33296ZM5.55702 1.7753C5.46688 1.82219 5.56775 1.85787 5.60075 1.78962C5.60264 1.78565 5.56117 1.77312 5.55702 1.7753ZM8.28281 0.417218C8.30412 0.405125 8.47761 0.601006 8.51061 0.633518C8.47629 0.630443 8.25829 0.431056 8.28281 0.417218ZM6.80403 0.47045C6.63846 0.515375 6.56511 0.726687 6.54796 0.740768C6.5308 0.754737 6.52891 0.704262 6.52458 0.707093C6.51496 0.713674 6.35128 0.880999 6.34506 0.890805C6.34072 0.897949 6.40765 0.904831 6.38502 0.950506C6.43085 0.863131 6.74765 0.574343 6.75934 0.554599C6.7682 0.539206 6.63752 0.591893 6.80403 0.47045C6.80422 0.470393 6.80403 0.470525 6.80403 0.47045ZM6.50062 0.771724C6.55757 0.745887 6.4433 0.863487 6.40935 0.885799C6.33392 0.935262 6.49346 0.775193 6.50062 0.771724ZM6.20645 1.03574C6.18986 1.04549 6.06672 1.16157 6.07369 1.18886C6.15289 1.15469 6.24473 1.01382 6.20645 1.03574ZM4.87476 2.36463C4.84572 2.3978 4.74691 2.46976 4.75709 2.48964C4.78594 2.45645 4.88495 2.38449 4.87476 2.36463ZM9.04633 0.914787C9.0073 0.850793 9.13232 0.96485 9.16117 1.00565C9.15306 1.01754 9.04973 0.920243 9.04633 0.914787ZM5.40125 1.64351C5.37824 1.65727 5.01355 2.04266 4.96773 2.10215C5.03071 2.06216 5.40445 1.69237 5.41577 1.67002C5.41897 1.66346 5.40427 1.64187 5.40125 1.64351ZM6.20778 0.827712C6.22004 0.771349 6.26906 0.775437 6.27377 0.771443C6.31997 0.732425 6.40332 0.6395 6.4054 0.680056C6.32148 0.7463 6.18326 0.939818 6.20778 0.827712ZM4.74748 2.29132C4.62792 2.42652 4.89664 2.20584 4.84139 2.21476C4.8378 2.21542 4.75973 2.27733 4.74748 2.29132ZM5.4367 1.59528C5.44707 1.54942 5.83874 1.19069 5.89908 1.13066C5.87815 1.21736 5.80932 1.23573 5.73842 1.30966C5.71938 1.32965 5.73822 1.33814 5.73615 1.34026C5.70296 1.37465 5.7124 1.33357 5.69128 1.35416C5.67789 1.36719 5.42237 1.65984 5.4367 1.59528ZM6.21211 0.792837C6.22041 0.759274 6.44989 0.520268 6.46271 0.51423C6.55851 0.468949 6.23474 0.779093 6.21211 0.792837ZM5.37278 1.60034C5.37485 1.52187 5.58737 1.36169 5.47875 1.50791C5.46819 1.5218 5.39993 1.55664 5.37278 1.60034ZM4.72447 2.24133C4.71712 2.24647 4.57625 2.37121 4.58606 2.38576C4.61 2.37134 4.80839 2.18261 4.72447 2.24133ZM4.75219 2.13155C4.74917 2.13504 4.80405 2.12742 4.73861 2.18654C4.73315 2.19144 4.69694 2.17471 4.62811 2.26241C4.61415 2.28022 4.60699 2.3222 4.61 2.32151C4.73333 2.28162 4.89965 1.95764 4.75219 2.13155ZM6.19476 0.767206C6.171 0.768668 6.16835 0.705255 6.21267 0.694605C6.23172 0.690105 6.22964 0.731824 6.19476 0.767206ZM4.29151 2.65053C4.34883 2.55352 4.10199 2.79136 4.09464 2.8088C4.115 2.81352 4.28566 2.66017 4.29151 2.65053ZM9.32317 0.880587C9.32298 0.880512 9.32317 0.880643 9.32317 0.880587C9.3837 0.949868 9.32637 0.926243 9.32882 0.929806C9.44291 1.0922 9.44403 1.01787 9.47024 1.03497C9.52644 1.07159 9.47288 1.11005 9.57037 1.16902C9.41254 1.06818 9.54228 1.17376 9.52965 1.19375C9.47722 1.27484 9.38841 0.990875 9.30958 0.94055C9.29865 0.933518 9.34391 1.02093 9.31468 1.00404C9.21983 0.949024 9.09066 0.614768 9.32317 0.880587ZM6.23097 0.670587C6.24153 0.620975 6.48968 0.412118 6.44518 0.488656C6.43801 0.500956 6.21532 0.743262 6.23097 0.670587ZM6.19343 12.8229C6.1214 12.785 6.22909 12.9318 6.26586 12.9423C6.28434 12.9474 6.22511 12.8396 6.19343 12.8229ZM8.70804 13.3032C8.77008 13.2346 8.76801 13.0955 8.69767 13.1874C8.69013 13.1971 8.69069 13.3008 8.70804 13.3032ZM2.75503 9.47637C2.79802 9.56956 2.84101 9.51856 2.79029 9.46925C2.77237 9.452 2.75371 9.47337 2.75503 9.47637ZM5.36901 12.0633C5.37429 12.0717 5.45632 12.1473 5.46424 12.1336C5.44142 12.0982 5.3362 12.0082 5.36901 12.0633ZM2.72655 9.46137C2.77558 9.49325 2.73994 9.38994 2.65716 9.37381C2.68507 9.39612 2.72165 9.45819 2.72655 9.46137ZM5.12744 1.63706C5.11273 1.69006 5.01091 1.77967 4.95924 1.83779C4.92813 1.81876 5.09255 1.68074 5.12744 1.63706ZM6.76632 13.4806C6.8459 13.5245 6.72767 13.3782 6.71654 13.4135C6.71692 13.4165 6.76311 13.4789 6.76632 13.4806ZM1.05883 5.66471C1.02885 5.72437 1.19196 5.60223 1.12634 5.61519C1.12332 5.61605 1.06053 5.66143 1.05883 5.66471ZM1.69187 5.05254C1.65264 5.08149 1.50857 5.22789 1.57985 5.18604C1.59098 5.17951 1.70299 5.06872 1.69187 5.05254ZM9.49212 1.02084C9.49967 0.976906 9.60036 1.08924 9.6111 1.10892C9.61525 1.11676 9.4827 1.07806 9.49212 1.02084ZM3.19477 9.9215C3.23343 9.95356 3.31885 10.0507 3.34865 10.0533C3.30245 10.0132 3.21005 9.88325 3.19477 9.9215ZM6.48365 13.1997C6.50967 13.2813 6.60453 13.3702 6.61829 13.3111C6.5142 13.2123 6.59811 13.3563 6.48365 13.1997ZM2.46878 9.26506C2.49499 9.29525 2.55174 9.28194 2.55024 9.27706C2.53534 9.23094 2.45426 9.22344 2.46878 9.26506ZM4.62528 11.3516C4.61189 11.3682 4.70957 11.4519 4.70712 11.4301C4.70637 11.423 4.63603 11.3382 4.62528 11.3516ZM3.92851 2.81204C3.87326 2.83983 3.98696 2.70005 4.04071 2.67856C4.082 2.68331 3.93549 2.80839 3.92851 2.81204ZM1.6913 8.47456C1.6649 8.49237 1.81953 8.62119 1.782 8.54712C1.77257 8.52856 1.70035 8.46856 1.6913 8.47456ZM1.2044 5.42952C1.13557 5.55071 1.55458 5.17164 1.41636 5.24322C1.40655 5.24836 1.21044 5.41904 1.2044 5.42952ZM1.8744 4.7963C1.85498 4.80972 1.78822 4.72709 1.88515 4.68817C1.89797 4.68303 1.87591 4.74425 1.88779 4.74149C1.89457 4.73979 2.05317 4.60317 2.05807 4.59464C2.06354 4.5854 2.03091 4.5701 2.03563 4.56003C2.04091 4.54871 2.15311 4.47912 2.201 4.43193C2.29133 4.34298 2.28096 4.31345 2.28832 4.30606C2.30962 4.28457 2.35997 4.26281 2.40353 4.21951C2.62265 4.00122 2.94115 3.65077 3.15744 3.51999C2.98565 3.65696 2.85629 3.82154 2.70789 3.98019C2.71128 3.89386 2.51347 4.2374 2.62416 4.03156C2.56156 4.11468 1.93719 4.75201 1.8744 4.7963C1.8744 4.79637 1.8744 4.79624 1.8744 4.7963ZM8.98732 13.0672C8.9728 13.1326 9.17324 12.9219 9.16117 12.875C9.12987 12.8981 8.98939 13.0595 8.98732 13.0672ZM6.2387 13.1786C6.21512 13.1639 6.14705 13.1956 6.07181 13.0706C6.07181 13.0704 6.07181 13.0707 6.07181 13.0706C6.04993 13.034 6.09538 13.0548 6.09425 13.0452C6.09406 13.0415 6.0273 12.9256 6.10744 12.9972C6.22964 13.1066 6.08123 13.0452 6.14252 13.1071C6.15006 13.1148 6.29414 13.2042 6.29319 13.1917C6.29319 13.1902 6.25228 13.1609 6.24888 13.1527C6.23625 13.1216 6.26264 13.1167 6.26019 13.1129C6.25208 13.1009 6.04032 12.9432 6.03655 12.8934C6.03523 12.8772 6.35656 13.1622 6.36448 13.1778C6.36938 13.1877 6.32299 13.2277 6.32638 13.2397C6.32827 13.2457 6.46687 13.3511 6.47875 13.3709C6.48215 13.3766 6.48441 13.3812 6.48592 13.3848C6.48083 13.3531 6.59058 13.4641 6.5721 13.4759C6.56418 13.4799 6.49157 13.4007 6.48988 13.397C6.48912 13.3953 6.48856 13.3936 6.48799 13.3923C6.48742 13.4242 6.23021 13.1669 6.2617 13.2466C6.17345 13.1855 6.3079 13.2217 6.2387 13.1786ZM5.85251 12.8478C5.86477 12.851 5.87721 12.8542 5.88947 12.8572C5.74729 12.7381 5.61811 12.5662 5.46726 12.4164C5.42898 12.3783 5.44519 12.4497 5.40257 12.3924C5.36844 12.3462 5.34976 12.2763 5.37748 12.2924C5.38427 12.2962 5.44915 12.3944 5.49196 12.4334C5.61793 12.5484 5.61132 12.4944 5.61905 12.5007C5.62754 12.5079 5.68674 12.6001 5.72898 12.6408C5.83534 12.7426 5.89775 12.7756 6.02127 12.9365C5.92321 12.8703 5.93416 12.9492 5.85251 12.8478ZM1.02375 7.94525C1.00377 7.95519 0.931354 7.85675 0.897977 7.82806C0.917966 7.81794 0.990377 7.91637 1.02375 7.94525ZM13.4689 4.74691C13.4178 4.74528 13.609 4.94748 13.5775 4.87537C13.5705 4.85939 13.4934 4.77172 13.4689 4.74691ZM14.3397 5.64281C14.3731 5.66225 14.2847 5.53895 14.2656 5.55813C14.2598 5.56439 14.3356 5.64031 14.3397 5.64281ZM4.18459 11.141C4.17874 11.1369 4.1118 11.0592 4.11067 11.0557C4.0888 10.9818 4.31263 11.2344 4.18459 11.141ZM13.6729 8.55369C13.7487 8.44606 13.4649 8.71437 13.5702 8.65081C13.5754 8.64762 13.6693 8.55894 13.6729 8.55369ZM13.2928 8.94069C13.3139 8.918 13.4199 8.82856 13.4137 8.81975C13.4035 8.80587 13.283 8.909 13.2928 8.94069ZM2.35639 9.33875C2.33923 9.377 2.23118 9.22756 2.18272 9.1865C2.19988 9.14825 2.30792 9.2975 2.35639 9.33875ZM3.15065 10.1692C2.58456 9.65 2.76389 9.71019 3.19647 10.1879C3.17931 10.2063 3.18629 10.202 3.15065 10.1692ZM2.45709 9.473C2.49461 9.47506 2.55118 9.54162 2.59153 9.58456C2.57154 9.58944 2.49047 9.49981 2.45709 9.473ZM13.2722 4.47539C13.3288 4.48694 13.4523 4.66482 13.4161 4.64733C13.4078 4.64311 13.2473 4.47524 13.2722 4.47539ZM4.1152 11.1194C4.10086 11.1588 3.9485 10.9854 3.9419 10.967C3.91569 10.8927 4.09596 11.1121 4.1152 11.1194ZM1.56024 8.59437C1.51008 8.58669 1.43898 8.49444 1.38656 8.44175C1.4288 8.44756 1.51574 8.54956 1.56024 8.59437ZM1.92399 8.98925C1.91984 8.98681 1.84838 8.91181 1.84611 8.9075C1.80651 8.82706 2.00922 9.03912 1.92399 8.98925ZM9.4363 0.588462C9.43951 0.590225 9.49381 0.646925 9.49494 0.649643C9.52417 0.719281 9.36125 0.549012 9.4363 0.588462Z" fill="#514747"/>
</svg>
