<svg width="77" height="22" viewBox="0 0 77 22" fill="none" xmlns="http://www.w3.org/2000/svg">
<path d="M20.3657 5.14688C19.0834 4.69688 17.6409 4.35 16.038 4.10625C14.454 3.8625 12.738 3.74063 10.89 3.74063C9.41914 3.74063 8.23114 3.83438 7.326 4.02188C6.43971 4.20938 5.79857 4.49062 5.40257 4.86562C5.02543 5.24062 4.83686 5.70937 4.83686 6.27187C4.83686 6.81563 5.02543 7.275 5.40257 7.65C5.77971 8.00625 6.42086 8.325 7.326 8.60625C8.25 8.86875 9.54172 9.13125 11.2011 9.39375C13.7846 9.76875 15.8494 10.2 17.3957 10.6875C18.9609 11.175 20.1206 11.7937 20.8749 12.5437C21.648 13.2937 22.0346 14.2312 22.0346 15.3562C22.0346 16.6312 21.6103 17.7094 20.7617 18.5906C19.9131 19.4531 18.6214 20.1094 16.8866 20.5594C15.1706 21.0094 13.002 21.2344 10.3809 21.2344C8.23114 21.2344 6.28886 21.1219 4.554 20.8969C2.838 20.6719 1.32 20.325 0 19.8563L0.226287 16.875C1.56514 17.325 3.08314 17.6719 4.78029 17.9156C6.49629 18.1406 8.40086 18.2531 10.494 18.2531C12.1723 18.2531 13.5394 18.1406 14.5954 17.9156C15.6703 17.6906 16.4623 17.3625 16.9714 16.9312C17.4806 16.4812 17.7351 15.9375 17.7351 15.3C17.7351 14.7562 17.5183 14.2969 17.0846 13.9219C16.6509 13.5469 15.9154 13.2094 14.8783 12.9094C13.86 12.5906 12.408 12.2812 10.5223 11.9812C8.12743 11.625 6.204 11.2125 4.752 10.7437C3.31886 10.2562 2.25343 9.64688 1.55572 8.91563C0.858001 8.18437 0.509144 7.26562 0.509144 6.15938C0.509144 5.01562 0.895715 4.04063 1.66886 3.23438C2.442 2.42813 3.59229 1.81875 5.11971 1.40625C6.666 0.975 8.58943 0.759375 10.89 0.759375C12.738 0.759375 14.4729 0.871875 16.0946 1.09688C17.7163 1.32188 19.2343 1.65938 20.6486 2.10938L20.3657 5.14688ZM34.3081 20.8687C33.9121 21 33.4407 21.0938 32.8938 21.15C32.3658 21.2062 31.7718 21.2344 31.1118 21.2344C29.9616 21.2344 28.9715 21.0562 28.1418 20.7C27.331 20.325 26.6993 19.7531 26.2467 18.9844C25.7941 18.1969 25.5678 17.1937 25.5678 15.975V7.28438L25.9638 7.3125L25.5113 2.98125H28.9338L27.7458 7.25625L28.5095 7.28438V15.8906C28.5095 16.9219 28.7736 17.6719 29.3016 18.1406C29.8296 18.6094 30.5838 18.8438 31.5644 18.8438C32.4318 18.8438 33.2898 18.7312 34.1384 18.5063L34.3081 20.8687ZM23.0504 7.03125H34.1667V9.36562H23.0504V7.03125ZM49.2111 20.8406L48.2777 14.6531V7.03125H51.2477V20.8406H49.2111ZM48.2777 15.4688C48.1645 16.5562 47.8628 17.5406 47.3725 18.4219C46.9011 19.2844 46.2317 19.9688 45.3643 20.475C44.5157 20.9813 43.488 21.2344 42.2811 21.2344C41.0931 21.2344 40.0654 21 39.198 20.5312C38.3494 20.0437 37.6894 19.3406 37.218 18.4219C36.7654 17.4844 36.5391 16.3781 36.5391 15.1031V7.03125H39.4808V14.8219C39.4808 16.0969 39.8297 17.0906 40.5274 17.8031C41.2251 18.4969 42.2151 18.8438 43.4974 18.8438C44.4968 18.8438 45.3548 18.6 46.0714 18.1125C46.788 17.625 47.3348 16.95 47.712 16.0875C48.0891 15.225 48.2777 14.2594 48.2777 13.1906L48.5888 15.4688H48.2777ZM69.7024 20.8406H67.6658L66.8173 15.1031L66.8738 12.3187L66.7324 7.59375V0H69.7024V20.8406ZM60.6793 21.2344C59.3027 21.2344 58.1241 20.9531 57.1436 20.3906C56.163 19.8094 55.4087 18.975 54.8807 17.8875C54.3716 16.7812 54.117 15.4687 54.117 13.95C54.117 12.4125 54.3621 11.1 54.8524 10.0125C55.3616 8.925 56.097 8.1 57.0587 7.5375C58.0204 6.95625 59.1707 6.66563 60.5096 6.66563C61.6598 6.66563 62.6781 6.88125 63.5644 7.3125C64.4507 7.74375 65.1673 8.37187 65.7141 9.19687C66.261 10.0219 66.6004 11.0062 66.7324 12.15H67.185V15.6656H66.7324C66.6004 16.8094 66.2798 17.8031 65.7707 18.6469C65.2616 19.4719 64.5733 20.1094 63.7058 20.5594C62.8573 21.0094 61.8484 21.2344 60.6793 21.2344ZM61.6693 18.8438C62.6876 18.8438 63.5644 18.6469 64.2999 18.2531C65.0541 17.8594 65.6293 17.2875 66.0253 16.5375C66.4213 15.7875 66.6193 14.8875 66.6193 13.8375C66.6193 12.825 66.4213 11.9625 66.0253 11.25C65.6293 10.5375 65.0541 9.99375 64.2999 9.61875C63.5644 9.24375 62.6876 9.05625 61.6693 9.05625C60.6887 9.05625 59.859 9.25312 59.1801 9.64687C58.5013 10.0219 57.9827 10.575 57.6244 11.3062C57.2661 12.0375 57.087 12.9187 57.087 13.95C57.087 14.9812 57.2661 15.8625 57.6244 16.5937C57.9827 17.325 58.5013 17.8875 59.1801 18.2812C59.8778 18.6562 60.7076 18.8438 61.6693 18.8438ZM76.952 7.03125V20.8406H74.0103V7.03125H76.952ZM75.4812 7.03125V9.42187H72.6809V7.03125H75.4812ZM75.0286 4.55625C74.4252 4.55625 73.9538 4.425 73.6143 4.1625C73.2938 3.9 73.1335 3.53437 73.1335 3.06562C73.1335 2.57812 73.2938 2.20313 73.6143 1.94063C73.9538 1.67813 74.4252 1.54688 75.0286 1.54688C75.632 1.54688 76.094 1.67813 76.4146 1.94063C76.7352 2.20313 76.8955 2.57812 76.8955 3.06562C76.8955 3.55312 76.7352 3.92812 76.4146 4.19062C76.094 4.43437 75.632 4.55625 75.0286 4.55625Z" fill="#514747"/>
</svg>
